<mxfile host="app.diagrams.net" agent="Mozilla/5.0 (Windows NT 10.0; Win64; x64) AppleWebKit/537.36 (KHTML, like Gecko) Chrome/134.0.0.0 Safari/537.36 Edg/134.0.0.0" version="26.0.13">
  <diagram name="Page-1" id="x0przJaXyr6u58u4k4em">
    <mxGraphModel dx="1678" dy="919" grid="1" gridSize="10" guides="1" tooltips="1" connect="1" arrows="1" fold="1" page="1" pageScale="1" pageWidth="3300" pageHeight="4681" math="0" shadow="0">
      <root>
        <mxCell id="0" />
        <mxCell id="1" parent="0" />
        <mxCell id="oFuQixV5sb0xlXIS1dnx-4" value="解析&lt;div&gt;设备描述符&lt;/div&gt;" style="strokeWidth=2;html=1;shape=mxgraph.flowchart.start_1;whiteSpace=wrap;" vertex="1" parent="1">
          <mxGeometry x="550" y="150" width="100" height="60" as="geometry" />
        </mxCell>
        <mxCell id="oFuQixV5sb0xlXIS1dnx-6" style="edgeStyle=orthogonalEdgeStyle;rounded=0;orthogonalLoop=1;jettySize=auto;html=1;exitX=0.5;exitY=1;exitDx=0;exitDy=0;exitPerimeter=0;entryX=0.5;entryY=0;entryDx=0;entryDy=0;entryPerimeter=0;" edge="1" parent="1" source="oFuQixV5sb0xlXIS1dnx-4">
          <mxGeometry relative="1" as="geometry">
            <mxPoint x="600" y="260" as="targetPoint" />
          </mxGeometry>
        </mxCell>
        <mxCell id="oFuQixV5sb0xlXIS1dnx-8" value="是否还有未解析的&lt;div&gt;配置描述符&lt;/div&gt;" style="strokeWidth=2;html=1;shape=mxgraph.flowchart.decision;whiteSpace=wrap;" vertex="1" parent="1">
          <mxGeometry x="530" y="260" width="140" height="70" as="geometry" />
        </mxCell>
        <mxCell id="oFuQixV5sb0xlXIS1dnx-9" value="解析&lt;div&gt;配置描述符&lt;/div&gt;" style="strokeWidth=2;html=1;shape=mxgraph.flowchart.start_1;whiteSpace=wrap;" vertex="1" parent="1">
          <mxGeometry x="380" y="265" width="100" height="60" as="geometry" />
        </mxCell>
        <mxCell id="oFuQixV5sb0xlXIS1dnx-10" style="edgeStyle=orthogonalEdgeStyle;rounded=0;orthogonalLoop=1;jettySize=auto;html=1;exitX=0;exitY=0.5;exitDx=0;exitDy=0;exitPerimeter=0;entryX=1;entryY=0.5;entryDx=0;entryDy=0;entryPerimeter=0;" edge="1" parent="1" source="oFuQixV5sb0xlXIS1dnx-8" target="oFuQixV5sb0xlXIS1dnx-9">
          <mxGeometry relative="1" as="geometry" />
        </mxCell>
        <mxCell id="oFuQixV5sb0xlXIS1dnx-11" value="是" style="edgeLabel;html=1;align=center;verticalAlign=middle;resizable=0;points=[];" vertex="1" connectable="0" parent="oFuQixV5sb0xlXIS1dnx-10">
          <mxGeometry x="-0.2571" relative="1" as="geometry">
            <mxPoint x="-4" y="-15" as="offset" />
          </mxGeometry>
        </mxCell>
        <mxCell id="oFuQixV5sb0xlXIS1dnx-12" value="解析结束" style="strokeWidth=2;html=1;shape=mxgraph.flowchart.start_1;whiteSpace=wrap;" vertex="1" parent="1">
          <mxGeometry x="720" y="265" width="100" height="60" as="geometry" />
        </mxCell>
        <mxCell id="oFuQixV5sb0xlXIS1dnx-13" style="edgeStyle=orthogonalEdgeStyle;rounded=0;orthogonalLoop=1;jettySize=auto;html=1;exitX=1;exitY=0.5;exitDx=0;exitDy=0;exitPerimeter=0;entryX=0;entryY=0.5;entryDx=0;entryDy=0;entryPerimeter=0;" edge="1" parent="1" source="oFuQixV5sb0xlXIS1dnx-8" target="oFuQixV5sb0xlXIS1dnx-12">
          <mxGeometry relative="1" as="geometry" />
        </mxCell>
        <mxCell id="oFuQixV5sb0xlXIS1dnx-14" value="否" style="edgeLabel;html=1;align=center;verticalAlign=middle;resizable=0;points=[];" vertex="1" connectable="0" parent="oFuQixV5sb0xlXIS1dnx-13">
          <mxGeometry relative="1" as="geometry">
            <mxPoint y="-15" as="offset" />
          </mxGeometry>
        </mxCell>
        <mxCell id="oFuQixV5sb0xlXIS1dnx-17" style="edgeStyle=orthogonalEdgeStyle;rounded=0;orthogonalLoop=1;jettySize=auto;html=1;exitX=0.5;exitY=1;exitDx=0;exitDy=0;exitPerimeter=0;entryX=0.5;entryY=0;entryDx=0;entryDy=0;entryPerimeter=0;" edge="1" parent="1" source="oFuQixV5sb0xlXIS1dnx-9">
          <mxGeometry relative="1" as="geometry">
            <mxPoint x="430" y="360" as="targetPoint" />
          </mxGeometry>
        </mxCell>
        <mxCell id="oFuQixV5sb0xlXIS1dnx-18" value="是否还有未解析的&lt;div&gt;接口&lt;/div&gt;" style="strokeWidth=2;html=1;shape=mxgraph.flowchart.decision;whiteSpace=wrap;" vertex="1" parent="1">
          <mxGeometry x="360" y="360" width="140" height="70" as="geometry" />
        </mxCell>
        <mxCell id="oFuQixV5sb0xlXIS1dnx-19" style="edgeStyle=orthogonalEdgeStyle;rounded=0;orthogonalLoop=1;jettySize=auto;html=1;exitX=1;exitY=0.5;exitDx=0;exitDy=0;exitPerimeter=0;entryX=0.5;entryY=1;entryDx=0;entryDy=0;entryPerimeter=0;" edge="1" parent="1" source="oFuQixV5sb0xlXIS1dnx-18" target="oFuQixV5sb0xlXIS1dnx-8">
          <mxGeometry relative="1" as="geometry" />
        </mxCell>
        <mxCell id="oFuQixV5sb0xlXIS1dnx-20" value="否" style="edgeLabel;html=1;align=center;verticalAlign=middle;resizable=0;points=[];" vertex="1" connectable="0" parent="oFuQixV5sb0xlXIS1dnx-19">
          <mxGeometry x="-0.4788" y="4" relative="1" as="geometry">
            <mxPoint y="-11" as="offset" />
          </mxGeometry>
        </mxCell>
        <mxCell id="oFuQixV5sb0xlXIS1dnx-102" style="edgeStyle=orthogonalEdgeStyle;rounded=0;orthogonalLoop=1;jettySize=auto;html=1;exitX=0;exitY=0.5;exitDx=0;exitDy=0;exitPerimeter=0;entryX=0.5;entryY=0;entryDx=0;entryDy=0;" edge="1" parent="1" source="oFuQixV5sb0xlXIS1dnx-39" target="oFuQixV5sb0xlXIS1dnx-101">
          <mxGeometry relative="1" as="geometry" />
        </mxCell>
        <mxCell id="oFuQixV5sb0xlXIS1dnx-103" value="根据协议栈&lt;div&gt;取出对应的解析器&lt;/div&gt;" style="edgeLabel;html=1;align=center;verticalAlign=middle;resizable=0;points=[];" vertex="1" connectable="0" parent="oFuQixV5sb0xlXIS1dnx-102">
          <mxGeometry x="0.3429" y="-1" relative="1" as="geometry">
            <mxPoint x="51" y="-72" as="offset" />
          </mxGeometry>
        </mxCell>
        <mxCell id="oFuQixV5sb0xlXIS1dnx-39" value="所解析出的&lt;div&gt;协议栈&lt;/div&gt;" style="strokeWidth=2;html=1;shape=mxgraph.flowchart.stored_data;whiteSpace=wrap;" vertex="1" parent="1">
          <mxGeometry x="380" y="490" width="100" height="60" as="geometry" />
        </mxCell>
        <mxCell id="oFuQixV5sb0xlXIS1dnx-40" style="edgeStyle=orthogonalEdgeStyle;rounded=0;orthogonalLoop=1;jettySize=auto;html=1;exitX=0.5;exitY=1;exitDx=0;exitDy=0;exitPerimeter=0;entryX=0.5;entryY=0;entryDx=0;entryDy=0;entryPerimeter=0;" edge="1" parent="1" source="oFuQixV5sb0xlXIS1dnx-18" target="oFuQixV5sb0xlXIS1dnx-39">
          <mxGeometry relative="1" as="geometry" />
        </mxCell>
        <mxCell id="oFuQixV5sb0xlXIS1dnx-41" value="是，则&lt;span style=&quot;text-wrap-mode: wrap;&quot;&gt;获取接口的&lt;/span&gt;&lt;div style=&quot;text-wrap-mode: wrap;&quot;&gt;协议栈&lt;/div&gt;" style="text;html=1;align=center;verticalAlign=middle;resizable=0;points=[];autosize=1;strokeColor=none;fillColor=none;" vertex="1" parent="1">
          <mxGeometry x="410" y="430" width="120" height="40" as="geometry" />
        </mxCell>
        <mxCell id="oFuQixV5sb0xlXIS1dnx-43" value="描述符&lt;div&gt;字节流&lt;/div&gt;" style="strokeWidth=2;html=1;shape=mxgraph.flowchart.sequential_data;whiteSpace=wrap;" vertex="1" parent="1">
          <mxGeometry x="470" y="40" width="60" height="60" as="geometry" />
        </mxCell>
        <mxCell id="oFuQixV5sb0xlXIS1dnx-45" value="解析开始" style="strokeWidth=2;html=1;shape=mxgraph.flowchart.start_2;whiteSpace=wrap;" vertex="1" parent="1">
          <mxGeometry x="570" y="70" width="60" height="60" as="geometry" />
        </mxCell>
        <mxCell id="oFuQixV5sb0xlXIS1dnx-46" style="edgeStyle=orthogonalEdgeStyle;rounded=0;orthogonalLoop=1;jettySize=auto;html=1;exitX=0.5;exitY=1;exitDx=0;exitDy=0;exitPerimeter=0;entryX=0.5;entryY=0;entryDx=0;entryDy=0;entryPerimeter=0;" edge="1" parent="1" source="oFuQixV5sb0xlXIS1dnx-45" target="oFuQixV5sb0xlXIS1dnx-4">
          <mxGeometry relative="1" as="geometry" />
        </mxCell>
        <mxCell id="oFuQixV5sb0xlXIS1dnx-51" style="edgeStyle=orthogonalEdgeStyle;rounded=0;orthogonalLoop=1;jettySize=auto;html=1;exitX=1;exitY=1;exitDx=0;exitDy=0;exitPerimeter=0;entryX=0;entryY=0.5;entryDx=0;entryDy=0;entryPerimeter=0;" edge="1" parent="1" source="oFuQixV5sb0xlXIS1dnx-43" target="oFuQixV5sb0xlXIS1dnx-45">
          <mxGeometry relative="1" as="geometry">
            <Array as="points">
              <mxPoint x="540" y="100" />
              <mxPoint x="540" y="100" />
            </Array>
          </mxGeometry>
        </mxCell>
        <mxCell id="oFuQixV5sb0xlXIS1dnx-56" value="解析接口描述符" style="strokeWidth=2;html=1;shape=mxgraph.flowchart.start_1;whiteSpace=wrap;" vertex="1" parent="1">
          <mxGeometry x="550" y="740" width="100" height="60" as="geometry" />
        </mxCell>
        <mxCell id="oFuQixV5sb0xlXIS1dnx-60" value="是否还有未解析的&lt;div&gt;下级接口描述符&lt;/div&gt;" style="strokeWidth=2;html=1;shape=mxgraph.flowchart.decision;whiteSpace=wrap;" vertex="1" parent="1">
          <mxGeometry x="530" y="600" width="140" height="70" as="geometry" />
        </mxCell>
        <mxCell id="oFuQixV5sb0xlXIS1dnx-68" style="edgeStyle=orthogonalEdgeStyle;rounded=0;orthogonalLoop=1;jettySize=auto;html=1;exitX=0.5;exitY=1;exitDx=0;exitDy=0;exitPerimeter=0;entryX=0.5;entryY=0;entryDx=0;entryDy=0;entryPerimeter=0;" edge="1" parent="1" source="oFuQixV5sb0xlXIS1dnx-60" target="oFuQixV5sb0xlXIS1dnx-56">
          <mxGeometry relative="1" as="geometry" />
        </mxCell>
        <mxCell id="oFuQixV5sb0xlXIS1dnx-69" value="是" style="edgeLabel;html=1;align=center;verticalAlign=middle;resizable=0;points=[];" vertex="1" connectable="0" parent="oFuQixV5sb0xlXIS1dnx-68">
          <mxGeometry x="-0.5714" relative="1" as="geometry">
            <mxPoint x="20" y="5" as="offset" />
          </mxGeometry>
        </mxCell>
        <mxCell id="oFuQixV5sb0xlXIS1dnx-74" style="edgeStyle=orthogonalEdgeStyle;rounded=0;orthogonalLoop=1;jettySize=auto;html=1;exitX=0.5;exitY=0;exitDx=0;exitDy=0;exitPerimeter=0;entryX=0.5;entryY=1;entryDx=0;entryDy=0;entryPerimeter=0;" edge="1" parent="1" source="oFuQixV5sb0xlXIS1dnx-60" target="oFuQixV5sb0xlXIS1dnx-8">
          <mxGeometry relative="1" as="geometry" />
        </mxCell>
        <mxCell id="oFuQixV5sb0xlXIS1dnx-75" value="否" style="edgeLabel;html=1;align=center;verticalAlign=middle;resizable=0;points=[];" vertex="1" connectable="0" parent="oFuQixV5sb0xlXIS1dnx-74">
          <mxGeometry x="-0.4593" relative="1" as="geometry">
            <mxPoint x="270" y="173" as="offset" />
          </mxGeometry>
        </mxCell>
        <mxCell id="oFuQixV5sb0xlXIS1dnx-80" value="保存状态变量：&lt;div&gt;是否为接口聚合&lt;/div&gt;&lt;div&gt;描述符&lt;/div&gt;" style="strokeWidth=2;html=1;shape=mxgraph.flowchart.stored_data;whiteSpace=wrap;" vertex="1" parent="1">
          <mxGeometry x="260" y="640" width="100" height="60" as="geometry" />
        </mxCell>
        <mxCell id="oFuQixV5sb0xlXIS1dnx-84" value="是否为&lt;div&gt;接口聚合描述符&lt;/div&gt;" style="strokeWidth=2;html=1;shape=mxgraph.flowchart.decision;whiteSpace=wrap;" vertex="1" parent="1">
          <mxGeometry x="360" y="570" width="140" height="70" as="geometry" />
        </mxCell>
        <mxCell id="oFuQixV5sb0xlXIS1dnx-85" style="edgeStyle=orthogonalEdgeStyle;rounded=0;orthogonalLoop=1;jettySize=auto;html=1;exitX=0.5;exitY=1;exitDx=0;exitDy=0;exitPerimeter=0;entryX=0.5;entryY=0;entryDx=0;entryDy=0;entryPerimeter=0;" edge="1" parent="1" source="oFuQixV5sb0xlXIS1dnx-39" target="oFuQixV5sb0xlXIS1dnx-84">
          <mxGeometry relative="1" as="geometry" />
        </mxCell>
        <mxCell id="oFuQixV5sb0xlXIS1dnx-86" style="edgeStyle=orthogonalEdgeStyle;rounded=0;orthogonalLoop=1;jettySize=auto;html=1;exitX=0;exitY=0.5;exitDx=0;exitDy=0;exitPerimeter=0;entryX=0.5;entryY=0;entryDx=0;entryDy=0;entryPerimeter=0;" edge="1" parent="1" source="oFuQixV5sb0xlXIS1dnx-84" target="oFuQixV5sb0xlXIS1dnx-80">
          <mxGeometry relative="1" as="geometry" />
        </mxCell>
        <mxCell id="oFuQixV5sb0xlXIS1dnx-87" style="edgeStyle=orthogonalEdgeStyle;rounded=0;orthogonalLoop=1;jettySize=auto;html=1;exitX=1;exitY=0.5;exitDx=0;exitDy=0;exitPerimeter=0;entryX=0;entryY=0.5;entryDx=0;entryDy=0;entryPerimeter=0;" edge="1" parent="1" source="oFuQixV5sb0xlXIS1dnx-84" target="oFuQixV5sb0xlXIS1dnx-60">
          <mxGeometry relative="1" as="geometry">
            <Array as="points">
              <mxPoint x="510" y="605" />
              <mxPoint x="510" y="635" />
            </Array>
          </mxGeometry>
        </mxCell>
        <mxCell id="oFuQixV5sb0xlXIS1dnx-88" value="是" style="edgeLabel;html=1;align=center;verticalAlign=middle;resizable=0;points=[];" vertex="1" connectable="0" parent="oFuQixV5sb0xlXIS1dnx-87">
          <mxGeometry x="-0.6" y="1" relative="1" as="geometry">
            <mxPoint x="19" y="-17" as="offset" />
          </mxGeometry>
        </mxCell>
        <mxCell id="oFuQixV5sb0xlXIS1dnx-89" style="edgeStyle=orthogonalEdgeStyle;rounded=0;orthogonalLoop=1;jettySize=auto;html=1;exitX=0.5;exitY=1;exitDx=0;exitDy=0;exitPerimeter=0;entryX=0;entryY=0.5;entryDx=0;entryDy=0;entryPerimeter=0;" edge="1" parent="1" source="oFuQixV5sb0xlXIS1dnx-84" target="oFuQixV5sb0xlXIS1dnx-56">
          <mxGeometry relative="1" as="geometry" />
        </mxCell>
        <mxCell id="oFuQixV5sb0xlXIS1dnx-90" value="否" style="edgeLabel;html=1;align=center;verticalAlign=middle;resizable=0;points=[];" vertex="1" connectable="0" parent="oFuQixV5sb0xlXIS1dnx-89">
          <mxGeometry x="-0.376" y="2" relative="1" as="geometry">
            <mxPoint as="offset" />
          </mxGeometry>
        </mxCell>
        <mxCell id="oFuQixV5sb0xlXIS1dnx-101" value="特定协议的解析器" style="verticalLabelPosition=bottom;verticalAlign=top;html=1;shape=process;whiteSpace=wrap;rounded=1;size=0.14;arcSize=6;" vertex="1" parent="1">
          <mxGeometry x="140" y="800" width="80" height="40" as="geometry" />
        </mxCell>
        <mxCell id="oFuQixV5sb0xlXIS1dnx-104" style="edgeStyle=orthogonalEdgeStyle;rounded=0;orthogonalLoop=1;jettySize=auto;html=1;exitX=1;exitY=0.5;exitDx=0;exitDy=0;entryX=0.5;entryY=1;entryDx=0;entryDy=0;entryPerimeter=0;dashed=1;" edge="1" parent="1" source="oFuQixV5sb0xlXIS1dnx-101" target="oFuQixV5sb0xlXIS1dnx-56">
          <mxGeometry relative="1" as="geometry">
            <Array as="points">
              <mxPoint x="600" y="820" />
            </Array>
          </mxGeometry>
        </mxCell>
        <mxCell id="oFuQixV5sb0xlXIS1dnx-105" value="使用解析器进行解析" style="edgeLabel;html=1;align=center;verticalAlign=middle;resizable=0;points=[];" vertex="1" connectable="0" parent="oFuQixV5sb0xlXIS1dnx-104">
          <mxGeometry x="-0.175" y="-4" relative="1" as="geometry">
            <mxPoint x="95" y="16" as="offset" />
          </mxGeometry>
        </mxCell>
        <mxCell id="oFuQixV5sb0xlXIS1dnx-109" value="根据状态进行跳转" style="strokeWidth=2;html=1;shape=mxgraph.flowchart.decision;whiteSpace=wrap;" vertex="1" parent="1">
          <mxGeometry x="700" y="735" width="140" height="70" as="geometry" />
        </mxCell>
        <mxCell id="oFuQixV5sb0xlXIS1dnx-110" style="edgeStyle=orthogonalEdgeStyle;rounded=0;orthogonalLoop=1;jettySize=auto;html=1;exitX=0.5;exitY=1;exitDx=0;exitDy=0;exitPerimeter=0;entryX=0.5;entryY=1;entryDx=0;entryDy=0;entryPerimeter=0;dashed=1;" edge="1" parent="1" source="oFuQixV5sb0xlXIS1dnx-80" target="oFuQixV5sb0xlXIS1dnx-109">
          <mxGeometry relative="1" as="geometry">
            <Array as="points">
              <mxPoint x="310" y="890" />
              <mxPoint x="770" y="890" />
            </Array>
          </mxGeometry>
        </mxCell>
        <mxCell id="oFuQixV5sb0xlXIS1dnx-112" value="引用状态变量" style="edgeLabel;html=1;align=center;verticalAlign=middle;resizable=0;points=[];" vertex="1" connectable="0" parent="oFuQixV5sb0xlXIS1dnx-110">
          <mxGeometry x="0.4259" relative="1" as="geometry">
            <mxPoint as="offset" />
          </mxGeometry>
        </mxCell>
        <mxCell id="oFuQixV5sb0xlXIS1dnx-111" style="edgeStyle=orthogonalEdgeStyle;rounded=0;orthogonalLoop=1;jettySize=auto;html=1;exitX=1;exitY=0.5;exitDx=0;exitDy=0;exitPerimeter=0;entryX=0;entryY=0.5;entryDx=0;entryDy=0;entryPerimeter=0;" edge="1" parent="1" source="oFuQixV5sb0xlXIS1dnx-56" target="oFuQixV5sb0xlXIS1dnx-109">
          <mxGeometry relative="1" as="geometry" />
        </mxCell>
        <mxCell id="oFuQixV5sb0xlXIS1dnx-113" style="edgeStyle=orthogonalEdgeStyle;rounded=0;orthogonalLoop=1;jettySize=auto;html=1;exitX=0.5;exitY=0;exitDx=0;exitDy=0;exitPerimeter=0;entryX=1;entryY=0.5;entryDx=0;entryDy=0;entryPerimeter=0;" edge="1" parent="1" source="oFuQixV5sb0xlXIS1dnx-109" target="oFuQixV5sb0xlXIS1dnx-60">
          <mxGeometry relative="1" as="geometry" />
        </mxCell>
        <mxCell id="oFuQixV5sb0xlXIS1dnx-114" value="是" style="edgeLabel;html=1;align=center;verticalAlign=middle;resizable=0;points=[];" vertex="1" connectable="0" parent="oFuQixV5sb0xlXIS1dnx-113">
          <mxGeometry x="0.31" y="1" relative="1" as="geometry">
            <mxPoint y="14" as="offset" />
          </mxGeometry>
        </mxCell>
        <mxCell id="oFuQixV5sb0xlXIS1dnx-115" style="edgeStyle=orthogonalEdgeStyle;rounded=0;orthogonalLoop=1;jettySize=auto;html=1;exitX=1;exitY=0.5;exitDx=0;exitDy=0;exitPerimeter=0;entryX=0.5;entryY=1;entryDx=0;entryDy=0;entryPerimeter=0;" edge="1" parent="1" source="oFuQixV5sb0xlXIS1dnx-109" target="oFuQixV5sb0xlXIS1dnx-8">
          <mxGeometry relative="1" as="geometry" />
        </mxCell>
        <mxCell id="oFuQixV5sb0xlXIS1dnx-116" value="否" style="edgeLabel;html=1;align=center;verticalAlign=middle;resizable=0;points=[];" vertex="1" connectable="0" parent="1">
          <mxGeometry x="640" y="537" as="geometry">
            <mxPoint x="-33" y="41" as="offset" />
          </mxGeometry>
        </mxCell>
      </root>
    </mxGraphModel>
  </diagram>
</mxfile>
